<mxfile host="app.diagrams.net" modified="2020-05-25T01:39:06.488Z" agent="5.0 (Macintosh; Intel Mac OS X 10_12_6) AppleWebKit/537.36 (KHTML, like Gecko) Chrome/81.0.4044.138 Safari/537.36" etag="1JrqeLargBf-c3Sh-7NJ" version="13.0.8" type="github">
  <diagram name="Page-1" id="b520641d-4fe3-3701-9064-5fc419738815">
    <mxGraphModel dx="946" dy="597" grid="1" gridSize="10" guides="1" tooltips="1" connect="1" arrows="1" fold="1" page="1" pageScale="1" pageWidth="1100" pageHeight="850" background="#ffffff" math="0" shadow="0">
      <root>
        <mxCell id="0" />
        <mxCell id="1" parent="0" />
        <mxCell id="21ea969265ad0168-36" style="edgeStyle=orthogonalEdgeStyle;html=1;labelBackgroundColor=none;startFill=0;startSize=8;endFill=1;endSize=8;fontFamily=Verdana;fontSize=12;" parent="1" source="21ea969265ad0168-6" edge="1">
          <mxGeometry relative="1" as="geometry">
            <mxPoint x="330" y="342" as="targetPoint" />
            <Array as="points">
              <mxPoint x="260" y="342" />
              <mxPoint x="260" y="342" />
            </Array>
          </mxGeometry>
        </mxCell>
        <mxCell id="rdV9_6l6kC6E4xn4P61S-1" value="goes to employees&lt;br&gt;requests" style="text;html=1;strokeColor=none;fillColor=none;align=center;verticalAlign=middle;whiteSpace=wrap;rounded=0;" parent="1" vertex="1">
          <mxGeometry x="280" y="300" width="40" height="20" as="geometry" />
        </mxCell>
        <mxCell id="rdV9_6l6kC6E4xn4P61S-27" value="" style="ellipse;html=1;shape=startState;fillColor=#000000;strokeColor=#ff0000;" parent="1" vertex="1">
          <mxGeometry y="317" width="30" height="30" as="geometry" />
        </mxCell>
        <mxCell id="rdV9_6l6kC6E4xn4P61S-28" value="" style="edgeStyle=orthogonalEdgeStyle;html=1;verticalAlign=bottom;endArrow=open;endSize=8;strokeColor=#ff0000;" parent="1" source="rdV9_6l6kC6E4xn4P61S-27" edge="1">
          <mxGeometry relative="1" as="geometry">
            <mxPoint x="90" y="332" as="targetPoint" />
          </mxGeometry>
        </mxCell>
        <mxCell id="BLEFrle1ULVc5vWn8EwS-16" value="accept[freeEmployee]" style="text;html=1;strokeColor=none;fillColor=none;align=center;verticalAlign=middle;whiteSpace=wrap;rounded=0;" parent="1" vertex="1">
          <mxGeometry x="700" y="260" width="40" height="20" as="geometry" />
        </mxCell>
        <mxCell id="_e-Dn9jZGVwWyQQVkrqx-2" value="send message" style="text;html=1;strokeColor=none;fillColor=none;align=center;verticalAlign=middle;whiteSpace=wrap;rounded=0;" parent="1" vertex="1">
          <mxGeometry x="1180" y="90" width="40" height="20" as="geometry" />
        </mxCell>
        <mxCell id="_e-Dn9jZGVwWyQQVkrqx-33" value="reject [NoFreeEmployee]" style="text;html=1;strokeColor=none;fillColor=none;align=center;verticalAlign=middle;whiteSpace=wrap;rounded=0;" parent="1" vertex="1">
          <mxGeometry x="810" y="450" width="40" height="20" as="geometry" />
        </mxCell>
        <mxCell id="Za8N9rrHKWuCIieLVCjy-16" value="" style="ellipse;html=1;shape=endState;fillColor=#000000;strokeColor=#ff0000;" parent="1" vertex="1">
          <mxGeometry x="1330" y="337" width="30" height="30" as="geometry" />
        </mxCell>
        <mxCell id="Za8N9rrHKWuCIieLVCjy-19" style="edgeStyle=orthogonalEdgeStyle;html=1;labelBackgroundColor=none;startFill=0;startSize=8;endFill=1;endSize=8;fontFamily=Verdana;fontSize=12;entryX=0;entryY=0.25;entryDx=0;entryDy=0;" parent="1" target="vDAGOXO0SgtxFYl0OrbP-25" edge="1">
          <mxGeometry relative="1" as="geometry">
            <mxPoint x="940" y="149.5" as="targetPoint" />
            <Array as="points">
              <mxPoint x="950" y="150" />
            </Array>
            <mxPoint x="900" y="149.5" as="sourcePoint" />
          </mxGeometry>
        </mxCell>
        <mxCell id="vDAGOXO0SgtxFYl0OrbP-7" value="" style="endArrow=classic;html=1;entryX=0;entryY=0.202;entryDx=0;entryDy=0;entryPerimeter=0;" parent="1" target="Za8N9rrHKWuCIieLVCjy-9" edge="1">
          <mxGeometry width="50" height="50" relative="1" as="geometry">
            <mxPoint x="560" y="347" as="sourcePoint" />
            <mxPoint x="630" y="347" as="targetPoint" />
          </mxGeometry>
        </mxCell>
        <mxCell id="vDAGOXO0SgtxFYl0OrbP-8" value="go to employees shifts page" style="text;html=1;strokeColor=none;fillColor=none;align=center;verticalAlign=middle;whiteSpace=wrap;rounded=0;" parent="1" vertex="1">
          <mxGeometry x="570" y="360" width="100" height="20" as="geometry" />
        </mxCell>
        <mxCell id="21ea969265ad0168-6" value="Dashboard" style="swimlane;html=1;fontStyle=0;childLayout=stackLayout;horizontal=1;startSize=26;fillColor=#e0e0e0;horizontalStack=0;resizeParent=1;resizeLast=0;collapsible=1;marginBottom=0;swimlaneFillColor=#ffffff;align=center;rounded=1;shadow=0;comic=0;labelBackgroundColor=none;strokeWidth=1;fontFamily=Verdana;fontSize=12" parent="1" vertex="1">
          <mxGeometry x="90" y="294" width="160" height="80" as="geometry" />
        </mxCell>
        <mxCell id="21ea969265ad0168-8" value="entry: logged in&lt;br&gt;&lt;br&gt;idle" style="text;html=1;strokeColor=none;fillColor=none;spacingLeft=4;spacingRight=4;whiteSpace=wrap;overflow=hidden;rotatable=0;points=[[0,0.5],[1,0.5]];portConstraint=eastwest;" parent="21ea969265ad0168-6" vertex="1">
          <mxGeometry y="26" width="160" height="54" as="geometry" />
        </mxCell>
        <mxCell id="BLEFrle1ULVc5vWn8EwS-1" value="Employees requests section" style="swimlane;html=1;fontStyle=0;childLayout=stackLayout;horizontal=1;startSize=26;fillColor=#e0e0e0;horizontalStack=0;resizeParent=1;resizeLast=0;collapsible=1;marginBottom=0;swimlaneFillColor=#ffffff;align=center;rounded=1;shadow=0;comic=0;labelBackgroundColor=none;strokeWidth=1;fontFamily=Verdana;fontSize=12" parent="1" vertex="1">
          <mxGeometry x="340" y="294" width="220" height="116" as="geometry" />
        </mxCell>
        <mxCell id="BLEFrle1ULVc5vWn8EwS-2" value="&lt;i&gt;&lt;u&gt;var RequestForChange=&quot;Pending&quot;&lt;br&gt;&lt;/u&gt;&lt;/i&gt;&lt;br&gt;&lt;br&gt;do:display employees&#39; requests for day off/shift change" style="text;html=1;strokeColor=none;fillColor=none;spacingLeft=4;spacingRight=4;whiteSpace=wrap;overflow=hidden;rotatable=0;points=[[0,0.5],[1,0.5]];portConstraint=eastwest;" parent="BLEFrle1ULVc5vWn8EwS-1" vertex="1">
          <mxGeometry y="26" width="220" height="84" as="geometry" />
        </mxCell>
        <mxCell id="Za8N9rrHKWuCIieLVCjy-8" value="Checking for free employee" style="swimlane;html=1;fontStyle=0;childLayout=stackLayout;horizontal=1;startSize=26;fillColor=#e0e0e0;horizontalStack=0;resizeParent=1;resizeLast=0;collapsible=1;marginBottom=0;swimlaneFillColor=#ffffff;align=center;rounded=1;shadow=0;comic=0;labelBackgroundColor=none;strokeWidth=1;fontFamily=Verdana;fontSize=12" parent="1" vertex="1">
          <mxGeometry x="680" y="300" width="210" height="130" as="geometry" />
        </mxCell>
        <mxCell id="Za8N9rrHKWuCIieLVCjy-9" value="&lt;span style=&quot;text-align: left&quot;&gt;&lt;i&gt;&lt;u&gt;var OtherEmployeResponse=&quot;Pending&quot;&lt;/u&gt;&lt;/i&gt;&lt;br&gt;&lt;/span&gt;&lt;br&gt;entry: display shifts of employees&lt;br&gt;do:select employee&lt;br&gt;exit:send request for change in shift" style="text;html=1;strokeColor=none;fillColor=none;align=center;verticalAlign=middle;whiteSpace=wrap;rounded=0;" parent="Za8N9rrHKWuCIieLVCjy-8" vertex="1">
          <mxGeometry y="26" width="210" height="104" as="geometry" />
        </mxCell>
        <mxCell id="BLEFrle1ULVc5vWn8EwS-3" value="Request accepted" style="swimlane;html=1;fontStyle=0;childLayout=stackLayout;horizontal=1;startSize=26;fillColor=#e0e0e0;horizontalStack=0;resizeParent=1;resizeLast=0;collapsible=1;marginBottom=0;swimlaneFillColor=#ffffff;align=center;rounded=1;shadow=0;comic=0;labelBackgroundColor=none;strokeWidth=1;fontFamily=Verdana;fontSize=12" parent="1" vertex="1">
          <mxGeometry x="670" y="70" width="230" height="170" as="geometry" />
        </mxCell>
        <mxCell id="BLEFrle1ULVc5vWn8EwS-4" value="&lt;i&gt;&lt;u&gt;var OtherEmployeResponse=&quot;Approved&quot;&lt;/u&gt;&lt;/i&gt;&lt;i&gt;&lt;u&gt;&lt;br&gt;var RequestForChange=&quot;accepted&lt;/u&gt;&lt;/i&gt;&quot;&lt;br&gt;&lt;br&gt;&lt;br&gt;&lt;br&gt;entry: read request&lt;br&gt;do: accept request&lt;br&gt;exit: make changes in shift table" style="text;html=1;strokeColor=none;fillColor=none;spacingLeft=4;spacingRight=4;whiteSpace=wrap;overflow=hidden;rotatable=0;points=[[0,0.5],[1,0.5]];portConstraint=eastwest;" parent="BLEFrle1ULVc5vWn8EwS-3" vertex="1">
          <mxGeometry y="26" width="230" height="134" as="geometry" />
        </mxCell>
        <mxCell id="vDAGOXO0SgtxFYl0OrbP-12" value="" style="endArrow=classic;html=1;exitX=0.438;exitY=1;exitDx=0;exitDy=0;exitPerimeter=0;" parent="1" source="Za8N9rrHKWuCIieLVCjy-9" edge="1">
          <mxGeometry width="50" height="50" relative="1" as="geometry">
            <mxPoint x="774.5" y="440" as="sourcePoint" />
            <mxPoint x="774.5" y="510" as="targetPoint" />
          </mxGeometry>
        </mxCell>
        <mxCell id="vDAGOXO0SgtxFYl0OrbP-15" value="" style="endArrow=classic;html=1;exitX=0.543;exitY=-0.037;exitDx=0;exitDy=0;exitPerimeter=0;" parent="1" source="Za8N9rrHKWuCIieLVCjy-8" edge="1">
          <mxGeometry width="50" height="50" relative="1" as="geometry">
            <mxPoint x="840" y="290" as="sourcePoint" />
            <mxPoint x="796" y="241" as="targetPoint" />
          </mxGeometry>
        </mxCell>
        <mxCell id="xTUxHZ-oDqPKJ_Eh4UzC-7" value="Request rejected" style="swimlane;html=1;fontStyle=0;childLayout=stackLayout;horizontal=1;startSize=26;fillColor=#e0e0e0;horizontalStack=0;resizeParent=1;resizeLast=0;collapsible=1;marginBottom=0;swimlaneFillColor=#ffffff;align=center;rounded=1;shadow=0;comic=0;labelBackgroundColor=none;strokeWidth=1;fontFamily=Verdana;fontSize=12" parent="1" vertex="1">
          <mxGeometry x="710" y="505" width="220" height="150" as="geometry" />
        </mxCell>
        <mxCell id="xTUxHZ-oDqPKJ_Eh4UzC-8" value="&lt;i style=&quot;text-align: left&quot;&gt;&lt;u&gt;var OtherEmployeResponse=&quot;Rejected&quot;&lt;br&gt;&lt;/u&gt;&lt;/i&gt;&lt;br&gt;&lt;br&gt;entry:read request&lt;br&gt;do: reject&lt;br&gt;exit:can not make changes in shifts table" style="text;html=1;strokeColor=none;fillColor=none;align=center;verticalAlign=middle;whiteSpace=wrap;rounded=0;" parent="xTUxHZ-oDqPKJ_Eh4UzC-7" vertex="1">
          <mxGeometry y="26" width="220" height="124" as="geometry" />
        </mxCell>
        <mxCell id="vDAGOXO0SgtxFYl0OrbP-20" value="" style="endArrow=classic;html=1;exitX=0;exitY=0;exitDx=0;exitDy=0;entryX=-0.014;entryY=0.817;entryDx=0;entryDy=0;entryPerimeter=0;" parent="1" source="xTUxHZ-oDqPKJ_Eh4UzC-8" target="Za8N9rrHKWuCIieLVCjy-9" edge="1">
          <mxGeometry width="50" height="50" relative="1" as="geometry">
            <mxPoint x="690" y="510" as="sourcePoint" />
            <mxPoint x="630" y="400" as="targetPoint" />
            <Array as="points">
              <mxPoint x="630" y="531" />
              <mxPoint x="630" y="410" />
            </Array>
          </mxGeometry>
        </mxCell>
        <mxCell id="vDAGOXO0SgtxFYl0OrbP-21" value="look for another employee" style="text;html=1;strokeColor=none;fillColor=none;align=center;verticalAlign=middle;whiteSpace=wrap;rounded=0;" parent="1" vertex="1">
          <mxGeometry x="570" y="470" width="40" height="20" as="geometry" />
        </mxCell>
        <mxCell id="vDAGOXO0SgtxFYl0OrbP-24" value="Shift being changed" style="swimlane;html=1;fontStyle=0;childLayout=stackLayout;horizontal=1;startSize=26;fillColor=#e0e0e0;horizontalStack=0;resizeParent=1;resizeLast=0;collapsible=1;marginBottom=0;swimlaneFillColor=#ffffff;align=center;rounded=1;shadow=0;comic=0;labelBackgroundColor=none;strokeWidth=1;fontFamily=Verdana;fontSize=12" parent="1" vertex="1">
          <mxGeometry x="960" y="110" width="210" height="80" as="geometry" />
        </mxCell>
        <mxCell id="vDAGOXO0SgtxFYl0OrbP-25" value="entry:read employees request&lt;br&gt;do: apply neccessary change&lt;br&gt;exit:save changes" style="text;html=1;strokeColor=none;fillColor=none;align=center;verticalAlign=middle;whiteSpace=wrap;rounded=0;" parent="vDAGOXO0SgtxFYl0OrbP-24" vertex="1">
          <mxGeometry y="26" width="210" height="44" as="geometry" />
        </mxCell>
        <mxCell id="vDAGOXO0SgtxFYl0OrbP-22" value="Employee notified on approval" style="swimlane;html=1;fontStyle=0;childLayout=stackLayout;horizontal=1;startSize=26;fillColor=#e0e0e0;horizontalStack=0;resizeParent=1;resizeLast=0;collapsible=1;marginBottom=0;swimlaneFillColor=#ffffff;align=center;rounded=1;shadow=0;comic=0;labelBackgroundColor=none;strokeWidth=1;fontFamily=Verdana;fontSize=12" parent="1" vertex="1">
          <mxGeometry x="1230" y="110" width="210" height="80" as="geometry" />
        </mxCell>
        <mxCell id="vDAGOXO0SgtxFYl0OrbP-23" value="do: send notification to employee that shift is changed" style="text;html=1;strokeColor=none;fillColor=none;align=center;verticalAlign=middle;whiteSpace=wrap;rounded=0;" parent="vDAGOXO0SgtxFYl0OrbP-22" vertex="1">
          <mxGeometry y="26" width="210" height="44" as="geometry" />
        </mxCell>
        <mxCell id="vDAGOXO0SgtxFYl0OrbP-26" value="" style="endArrow=classic;html=1;entryX=0;entryY=0;entryDx=0;entryDy=0;" parent="1" target="vDAGOXO0SgtxFYl0OrbP-18" edge="1">
          <mxGeometry width="50" height="50" relative="1" as="geometry">
            <mxPoint x="930" y="560" as="sourcePoint" />
            <mxPoint x="980" y="560" as="targetPoint" />
          </mxGeometry>
        </mxCell>
        <mxCell id="vDAGOXO0SgtxFYl0OrbP-17" value="Employee notified on rejection" style="swimlane;html=1;fontStyle=0;childLayout=stackLayout;horizontal=1;startSize=26;fillColor=#e0e0e0;horizontalStack=0;resizeParent=1;resizeLast=0;collapsible=1;marginBottom=0;swimlaneFillColor=#ffffff;align=center;rounded=1;shadow=0;comic=0;labelBackgroundColor=none;strokeWidth=1;fontFamily=Verdana;fontSize=12" parent="1" vertex="1">
          <mxGeometry x="1000" y="530" width="210" height="80" as="geometry" />
        </mxCell>
        <mxCell id="vDAGOXO0SgtxFYl0OrbP-18" value="do: send notification to employee that shift can&#39;t be changed" style="text;html=1;strokeColor=none;fillColor=none;align=center;verticalAlign=middle;whiteSpace=wrap;rounded=0;" parent="vDAGOXO0SgtxFYl0OrbP-17" vertex="1">
          <mxGeometry y="26" width="210" height="44" as="geometry" />
        </mxCell>
        <mxCell id="vDAGOXO0SgtxFYl0OrbP-27" value="" style="endArrow=classic;html=1;" parent="1" edge="1">
          <mxGeometry width="50" height="50" relative="1" as="geometry">
            <mxPoint x="1170" y="148" as="sourcePoint" />
            <mxPoint x="1230" y="148" as="targetPoint" />
          </mxGeometry>
        </mxCell>
        <mxCell id="vDAGOXO0SgtxFYl0OrbP-28" value="send message" style="text;html=1;strokeColor=none;fillColor=none;align=center;verticalAlign=middle;whiteSpace=wrap;rounded=0;" parent="1" vertex="1">
          <mxGeometry x="950" y="520" width="40" height="20" as="geometry" />
        </mxCell>
        <mxCell id="vDAGOXO0SgtxFYl0OrbP-29" value="change shift" style="text;html=1;strokeColor=none;fillColor=none;align=center;verticalAlign=middle;whiteSpace=wrap;rounded=0;" parent="1" vertex="1">
          <mxGeometry x="910" y="100" width="40" height="20" as="geometry" />
        </mxCell>
        <mxCell id="vDAGOXO0SgtxFYl0OrbP-30" value="" style="endArrow=classic;html=1;entryX=0.5;entryY=0;entryDx=0;entryDy=0;" parent="1" target="Za8N9rrHKWuCIieLVCjy-16" edge="1">
          <mxGeometry width="50" height="50" relative="1" as="geometry">
            <mxPoint x="1344.5" y="190" as="sourcePoint" />
            <mxPoint x="1344.5" y="270" as="targetPoint" />
          </mxGeometry>
        </mxCell>
        <mxCell id="vDAGOXO0SgtxFYl0OrbP-31" value="" style="endArrow=classic;html=1;exitX=1;exitY=0;exitDx=0;exitDy=0;entryX=0.5;entryY=1;entryDx=0;entryDy=0;" parent="1" source="vDAGOXO0SgtxFYl0OrbP-18" target="Za8N9rrHKWuCIieLVCjy-16" edge="1">
          <mxGeometry width="50" height="50" relative="1" as="geometry">
            <mxPoint x="1230" y="555" as="sourcePoint" />
            <mxPoint x="1350" y="480" as="targetPoint" />
            <Array as="points">
              <mxPoint x="1345" y="556" />
            </Array>
          </mxGeometry>
        </mxCell>
      </root>
    </mxGraphModel>
  </diagram>
</mxfile>
